/* XPM */
static const char * FasterCap_16x16_xpm[] = {
"16 16 4 1",
" 	c None",
".	c #000000",
"+	c #FFFF00",
"@	c #0000FF",
"................",
".++++++++++++++.",
".++++++++++++++.",
".++++++++++++++.",
".++++++++++++++.",
".+++++@+@++++++.",
".+++++@+@++++++.",
".+++++@+@++++++.",
".@@@@@@+@@@@@@@.",
".+++++@+@++++++.",
".+++++@+@++++++.",
".+++++@+@++++++.",
".++++++++++++++.",
".++++++++++++++.",
".++++++++++++++.",
"................"};
